# xmcd
#
# Track frame offsets:
# 150
# 10513
# 15733
# 21808
# 30598
# 37633
# 43705
# 48995
# 55030
# 60233
# 64970
# 72385
# 77345
# 81390
# 91888
# 98485
# 109763
# 117888
# 121690
# 127085
# 132343
# 138958
# 142693
# 148480
# 153200
# 157363
# 160953
# 172710
# 179425
# 182588
# 186210
# 193800
# 199145
# 205943
# 214088
# 221028
# 224718
# 226980
# 233290
# 240540
# 243605
# 247415
# 254490
# 260478
# 261243
# 262460
# 264015
# 267328
# 269638
# 272635
# 273930
# 275603
# 276885
# 278610
# 279965
# 281658
# 282993
# 285760
# 287278
# 288713
# 290255
# 291780
# 293405
#
# Disc length: 3995 seconds
#
# Revision: 0
# Processed by: cddbd v1.5.2PL0 Copyright (c) Steve Scherf et al.
# Submitted via: Audion 3.0.2 (http://www.panic.com/audion/)
#
DISCID=c40f993f
DTITLE=World of Music - Kindergarten 4
DYEAR=1900
DGENRE=
TTITLE0=Music Box 
TTITLE1=I like School
TTITLE2=start off each day
TTITLE3=one step at a time
TTITLE4=everybody needs music
TTITLE5=lucky day
TTITLE6=busy hands
TTITLE7=smile and say hello
TTITLE8=giver youself a pat
TTITLE9=I liek school
TTITLE10=What do you hear
TTITLE11=happy birthday to you
TTITLE12=greeting prelude 
TTITLE13=this is halloween 
TTITLE14=jack o lantern
TTITLE15=the witch doll
TTITLE16=the rag doll t
TTITLE17=the witch rides 
TTITLE18=all good gifts 
TTITLE19=all good gifts 
TTITLE20=we give thanks
TTITLE21=I'm a very fine turkey
TTITLE22=candles of chanukah 
TTITLE23=my dreydl
TTITLE24=we wish you a merry christmas
TTITLE25=merry christmas
TTITLE26=must be santa
TTITLE27=caol 
TTITLE28=deck the hall 
TTITLE29=jingle bells
TTITLE30=mary had a baby
TTITLE31=cradle song
TTITLE32=sleeping time
TTITLE33=shepherds lullaby
TTITLE34=birthday presents
TTITLE35=america 
TTITLE36=america
TTITLE37=battle hymn
TTITLE38=our flag 
TTITLE39=the stars and stripes forever
TTITLE40=my valentine
TTITLE41=mail myself to you
TTITLE42=my easter basket
TTITLE43=sound bank 
TTITLE44=sound bank 
TTITLE45=jam on the lawn 
TTITLE46=1
TTITLE47=2
TTITLE48=1
TTITLE49=1
TTITLE50=1
TTITLE51=1
TTITLE52=1
TTITLE53=1
TTITLE54=1
TTITLE55=1
TTITLE56=1
TTITLE57=11
TTITLE58=!
TTITLE59=!
TTITLE60=1
TTITLE61=1
TTITLE62=1
EXTD=
EXTT0=
EXTT1=
EXTT2=
EXTT3=
EXTT4=
EXTT5=
EXTT6=
EXTT7=
EXTT8=
EXTT9=
EXTT10=
EXTT11=
EXTT12=
EXTT13=
EXTT14=
EXTT15=
EXTT16=
EXTT17=
EXTT18=
EXTT19=
EXTT20=
EXTT21=
EXTT22=
EXTT23=
EXTT24=
EXTT25=
EXTT26=
EXTT27=
EXTT28=
EXTT29=
EXTT30=
EXTT31=
EXTT32=
EXTT33=
EXTT34=
EXTT35=
EXTT36=
EXTT37=
EXTT38=
EXTT39=
EXTT40=
EXTT41=
EXTT42=
EXTT43=
EXTT44=
EXTT45=
EXTT46=
EXTT47=
EXTT48=
EXTT49=
EXTT50=
EXTT51=
EXTT52=
EXTT53=
EXTT54=
EXTT55=
EXTT56=
EXTT57=
EXTT58=
EXTT59=
EXTT60=
EXTT61=
EXTT62=
PLAYORDER=
